<svg width="14" height="14" viewBox="0 0 14 14" fill="none" xmlns="http://www.w3.org/2000/svg">
<g clip-path="url(#clip0_870_28799)">
<path d="M11.1947 14H2.806C2.32584 14.0003 1.85364 13.8773 1.43471 13.6426C1.01577 13.408 0.664161 13.0696 0.413599 12.6599C0.163037 12.2503 0.0219339 11.7831 0.00382493 11.3032C-0.0142841 10.8233 0.0912083 10.3468 0.310184 9.91945L4.60519 1.52896C5.09132 0.57873 6.03882 -0.0515018 7.12577 0.00324427C7.64684 0.00621041 8.15666 0.155112 8.59744 0.433071C9.03822 0.71103 9.39233 1.10693 9.61962 1.57589L13.7165 9.96572C13.9256 10.3931 14.0225 10.8667 13.998 11.3419C13.9735 11.8171 13.8284 12.2782 13.5764 12.6818C13.3245 13.0854 12.9739 13.4182 12.5578 13.6488C12.1416 13.8794 11.6737 14.0003 11.1979 14H11.1947ZM7.09644 2.33386C7.0083 2.33179 6.92144 2.35531 6.84639 2.40158C6.77133 2.44784 6.71129 2.51487 6.67352 2.59456L2.38177 10.9798C2.34472 11.0524 2.32692 11.1333 2.33009 11.2147C2.33326 11.2961 2.35728 11.3754 2.39986 11.4449C2.44244 11.5143 2.50215 11.5717 2.57327 11.6115C2.64438 11.6512 2.72452 11.6721 2.806 11.672H11.1947C11.2753 11.672 11.3547 11.6514 11.4253 11.6123C11.4958 11.5732 11.5553 11.5167 11.598 11.4483C11.6408 11.3799 11.6654 11.3017 11.6696 11.2211C11.6738 11.1405 11.6575 11.0602 11.6221 10.9877L7.52523 2.59782C7.41054 2.36384 7.20462 2.30844 7.09644 2.3306V2.33386Z" fill="url(#paint0_linear_870_28799)"/>
</g>
<defs>
<linearGradient id="paint0_linear_870_28799" x1="9.73106" y1="15.2813" x2="2.2577" y2="2.33868" gradientUnits="userSpaceOnUse">
<stop stop-color="#44F3C8"/>
<stop offset="0.56" stop-color="#1921F2"/>
<stop offset="0.99" stop-color="#B426BF"/>
</linearGradient>
<clipPath id="clip0_870_28799">
<rect width="14" height="14" fill="white"/>
</clipPath>
</defs>
</svg>
