<svg width="30" height="30" viewBox="0 0 30 30" fill="none" xmlns="http://www.w3.org/2000/svg">
<circle cx="15" cy="15.3867" r="14" fill="#191D27" stroke="black"/>
<g clip-path="url(#clip0_1431_7571)">
<path d="M20.0331 23.0482H10.4694C9.92199 23.0486 9.38366 22.9083 8.90604 22.6408C8.42843 22.3732 8.02756 21.9874 7.74191 21.5204C7.45625 21.0534 7.29538 20.5207 7.27473 19.9736C7.25409 19.4265 7.37436 18.8833 7.62401 18.3961L12.5206 8.8303C13.0749 7.74696 14.1551 7.02845 15.3943 7.09087C15.9883 7.09425 16.5696 7.26401 17.0721 7.5809C17.5746 7.89779 17.9783 8.34915 18.2374 8.8838L22.9082 18.4488C23.1466 18.9361 23.257 19.476 23.2291 20.0177C23.2012 20.5595 23.0358 21.0852 22.7485 21.5453C22.4612 22.0055 22.0616 22.3849 21.5871 22.6478C21.1127 22.9107 20.5792 23.0485 20.0368 23.0482H20.0331ZM15.3608 9.74794C15.2603 9.74558 15.1613 9.77239 15.0757 9.82514C14.9902 9.87789 14.9217 9.95431 14.8787 10.0452L9.98577 19.605C9.94352 19.6877 9.92323 19.7799 9.92684 19.8727C9.93045 19.9656 9.95785 20.0559 10.0064 20.1351C10.0549 20.2143 10.123 20.2797 10.2041 20.3251C10.2852 20.3704 10.3765 20.3942 10.4694 20.3941H20.0331C20.1251 20.3941 20.2155 20.3706 20.296 20.326C20.3764 20.2814 20.4442 20.2171 20.4929 20.1391C20.5417 20.061 20.5698 19.9719 20.5746 19.88C20.5794 19.7882 20.5608 19.6966 20.5205 19.6139L15.8497 10.0489C15.7189 9.78212 15.4842 9.71896 15.3608 9.74422V9.74794Z" fill="url(#paint0_linear_1431_7571)"/>
</g>
<defs>
<linearGradient id="paint0_linear_1431_7571" x1="18.3645" y1="24.509" x2="9.84431" y2="9.75343" gradientUnits="userSpaceOnUse">
<stop stop-color="#44F3C8"/>
<stop offset="0.56" stop-color="#1921F2"/>
<stop offset="0.99" stop-color="#B426BF"/>
</linearGradient>
<clipPath id="clip0_1431_7571">
<rect width="15.961" height="15.961" fill="white" transform="translate(7.27051 7.08716)"/>
</clipPath>
</defs>
</svg>
