<svg width="25" height="26" viewBox="0 0 25 26" fill="none" xmlns="http://www.w3.org/2000/svg">
<path fill-rule="evenodd" clip-rule="evenodd" d="M24.7388 12.8867C24.7388 15.316 24.0184 17.6907 22.6688 19.7106C21.3191 21.7305 19.4008 23.3048 17.1564 24.2344C14.9121 25.1641 12.4424 25.4073 10.0598 24.9334C7.67721 24.4595 5.48864 23.2896 3.77087 21.5719C2.0531 19.8541 0.883285 17.6655 0.409354 15.2829C-0.0645769 12.9003 0.178662 10.4307 1.10831 8.1863C2.03796 5.94193 3.61227 4.02363 5.63215 2.67399C7.65203 1.32435 10.0268 0.603977 12.4561 0.603977C15.7136 0.603977 18.8378 1.89804 21.1412 4.2015C23.4447 6.50496 24.7388 9.62911 24.7388 12.8867ZM8.96814 17.7623H6.58661C6.28342 17.805 5.97438 17.7728 5.6865 17.6685C5.60825 17.6173 5.54353 17.5479 5.49782 17.4663C5.45212 17.3846 5.42678 17.2932 5.42397 17.1997C5.42397 17.0309 5.53648 16.8059 5.78026 16.3746L11.6685 6.00462C11.9122 5.55457 12.0435 5.32954 12.1935 5.25453C12.2802 5.20856 12.3767 5.18452 12.4748 5.18452C12.5729 5.18452 12.6695 5.20856 12.7561 5.25453C12.9061 5.25453 13.0374 5.55457 13.2812 6.00462L14.5 8.10487C14.7038 8.39808 14.8619 8.72054 14.9689 9.06123C15.0437 9.33753 15.0437 9.62879 14.9689 9.90508C14.8605 10.2511 14.7026 10.5795 14.5 10.8802L11.4247 16.3559C11.2591 16.6775 11.0578 16.9794 10.8246 17.256C10.617 17.4538 10.3668 17.6013 10.0933 17.6873C9.72178 17.7507 9.34476 17.7758 8.96814 17.7623ZM14.9876 17.7623H18.4005C18.7099 17.8015 19.0243 17.7695 19.3194 17.6685C19.3976 17.6173 19.4623 17.5479 19.5081 17.4663C19.5538 17.3846 19.5791 17.2932 19.5819 17.1997C19.5819 17.0309 19.4694 16.8059 19.2444 16.4121L17.5004 13.4305C17.2379 12.9992 17.0504 12.7929 17.0504 12.7179C16.9637 12.6719 16.8671 12.6479 16.7691 12.6479C16.671 12.6479 16.5744 12.6719 16.4878 12.7179C16.3378 12.7179 16.2065 12.9992 15.9627 13.4305L14.1813 16.3559C13.9907 16.5961 13.8619 16.8794 13.8062 17.181C13.8126 17.2758 13.8415 17.3677 13.8904 17.4492C13.9393 17.5308 14.0068 17.5995 14.0875 17.6498C14.3738 17.7604 14.6829 17.799 14.9876 17.7623Z" fill="#E84142"/>
</svg>
