<svg width="129" height="129" viewBox="0 0 129 129" fill="none" xmlns="http://www.w3.org/2000/svg">
<g clip-path="url(#clip0_1686_3753)">
<path d="M94.2464 106.215H34.3274C30.8976 106.217 27.5248 105.33 24.5324 103.637C21.54 101.944 19.0285 99.5025 17.2388 96.5471C15.4491 93.5917 14.4412 90.2214 14.3118 86.7593C14.1825 83.2973 14.936 79.8598 16.5001 76.7765L47.1788 16.2452C50.6511 9.38992 57.4189 4.84325 65.1829 5.2382C68.9048 5.2596 72.5464 6.33382 75.6948 8.33909C78.8432 10.3444 81.3726 13.2005 82.9961 16.5837L112.26 77.1104C113.753 80.1937 114.445 83.6103 114.27 87.0384C114.095 90.4665 113.059 93.7931 111.259 96.7048C109.459 99.6165 106.955 102.017 103.983 103.681C101.011 105.345 97.6678 106.217 94.2696 106.215H94.2464ZM64.9734 22.0519C64.3438 22.037 63.7234 22.2067 63.1873 22.5405C62.6512 22.8742 62.2223 23.3578 61.9525 23.9327L31.2972 84.4264C31.0325 84.95 30.9054 85.5334 30.928 86.1209C30.9506 86.7083 31.1223 87.28 31.4264 87.7812C31.7306 88.2824 32.157 88.6963 32.665 88.9832C33.173 89.2701 33.7454 89.4205 34.3274 89.4198H94.2464C94.8226 89.4197 95.3895 89.2715 95.8935 88.9892C96.3975 88.7069 96.8221 88.2998 97.1275 87.8061C97.4328 87.3124 97.6088 86.7483 97.639 86.167C97.6691 85.5856 97.5524 85.0061 97.2998 84.4828L68.0362 23.9562C67.2169 22.2682 65.7461 21.8686 64.9734 22.0284V22.0519Z" fill="url(#paint0_linear_1686_3753)"/>
</g>
<defs>
<linearGradient id="paint0_linear_1686_3753" x1="83.7921" y1="115.458" x2="29.6103" y2="22.5536" gradientUnits="userSpaceOnUse">
<stop stop-color="#44F3C8"/>
<stop offset="0.56" stop-color="#1921F2"/>
<stop offset="0.99" stop-color="#B426BF"/>
</linearGradient>
<clipPath id="clip0_1686_3753">
<rect width="100" height="101" fill="white" transform="translate(14.2847 5.21436)"/>
</clipPath>
</defs>
</svg>
