<svg width="24" height="17" viewBox="0 0 24 17" fill="none" xmlns="http://www.w3.org/2000/svg">
<path d="M4.59633 16.2894H4.48567C4.22761 16.2745 3.97508 16.2059 3.74314 16.0879C3.5112 15.9698 3.30461 15.8046 3.13567 15.6021C1.531 13.4932 0.658447 10.8867 0.658447 8.20216C0.658447 5.51761 1.531 2.91114 3.13567 0.802239C3.29375 0.585428 3.4975 0.408777 3.73142 0.285712C3.96535 0.162647 4.22331 0.0964088 4.48567 0.0920308C4.75669 0.0717856 5.02864 0.114798 5.28145 0.217894C5.53426 0.320991 5.76148 0.481538 5.94634 0.68769L10.1292 5.04058C10.3782 5.30103 10.6746 5.50778 11.0013 5.64889C11.328 5.78999 11.6785 5.86265 12.0324 5.86265C12.3864 5.86265 12.7369 5.78999 13.0636 5.64889C13.3903 5.50778 13.6867 5.30103 13.9357 5.04058L18.0521 0.68769C18.4524 0.311034 18.972 0.0991392 19.5128 0.0920308C19.772 0.112355 20.0247 0.185573 20.2564 0.307465C20.4881 0.429357 20.6942 0.597512 20.8628 0.802239C22.4555 2.89155 23.328 5.47197 23.3415 8.13343C23.3468 10.8052 22.4725 13.3991 20.8628 15.4875C20.7036 15.7014 20.4991 15.8746 20.2651 15.9937C20.031 16.1129 19.7736 16.1748 19.5128 16.1748C19.2435 16.198 18.9726 16.1585 18.7199 16.0594C18.4672 15.9604 18.2391 15.8041 18.0521 15.6021L13.9357 11.2492C13.6909 10.9936 13.3996 10.7907 13.0786 10.6523C12.7576 10.5138 12.4134 10.4425 12.0656 10.4425C11.7179 10.4425 11.3736 10.5138 11.0527 10.6523C10.7317 10.7907 10.4404 10.9936 10.1955 11.2492L5.94634 15.6021C5.78286 15.811 5.57746 15.9807 5.34435 16.0994C5.11125 16.2181 4.85602 16.2829 4.59633 16.2894ZM4.59633 1.76446C4.55262 1.75856 4.5082 1.76632 4.46877 1.78672C4.42933 1.80713 4.39669 1.83927 4.37502 1.87901C2.95504 3.6595 2.1732 5.89332 2.16189 8.20216C2.18745 10.5083 2.96763 12.7374 4.37502 14.5253C4.37502 14.5253 4.48567 14.5253 4.52994 14.5253H4.75125L8.93406 10.2411C9.73423 9.41852 10.8162 8.95685 11.9439 8.95685C13.0716 8.95685 14.1536 9.41852 14.9538 10.2411L19.1366 14.5711C19.2089 14.5928 19.2856 14.5928 19.3579 14.5711C19.3579 14.5711 19.3579 14.5711 19.5128 14.5711C20.9145 12.7832 21.6795 10.5506 21.6795 8.24798C21.6795 5.94535 20.9145 3.71278 19.5128 1.92483C19.5128 1.92483 19.5128 1.81028 19.3579 1.81028H19.1366L14.9538 6.16317C14.1536 6.9858 13.0716 7.44747 11.9439 7.44747C10.8162 7.44747 9.73423 6.9858 8.93406 6.16317L4.75125 1.81028C4.70544 1.77877 4.65131 1.76276 4.59633 1.76446Z" fill="url(#paint0_linear_1431_7354)"/>
<defs>
<linearGradient id="paint0_linear_1431_7354" x1="0.590569" y1="8.20216" x2="23.3194" y2="8.20216" gradientUnits="userSpaceOnUse">
<stop stop-color="#0047FF"/>
<stop offset="1" stop-color="#CB07FF"/>
</linearGradient>
</defs>
</svg>
